<?xml version="1.0" encoding="UTF-8" standalone="no"?>
<!-- Created with Inkscape (http://www.inkscape.org/) -->

<svg
   id="svg2"
   version="1.1"
   inkscape:version="1.3 (0e150ed, 2023-07-21)"
   xml:space="preserve"
   width="108"
   height="108"
   viewBox="-4 0 135 135"
   sodipodi:docname="tikal_mono.svg"
   inkscape:export-filename="ic_tikal_mono.svg"
   inkscape:export-xdpi="22.25"
   inkscape:export-ydpi="22.25"
   xmlns:inkscape="http://www.inkscape.org/namespaces/inkscape"
   xmlns:sodipodi="http://sodipodi.sourceforge.net/DTD/sodipodi-0.dtd"
   xmlns="http://www.w3.org/2000/svg"
   xmlns:svg="http://www.w3.org/2000/svg"
   xmlns:rdf="http://www.w3.org/1999/02/22-rdf-syntax-ns#"
   xmlns:cc="http://creativecommons.org/ns#"
   xmlns:dc="http://purl.org/dc/elements/1.1/"><metadata
     id="metadata8"><rdf:RDF><cc:Work
         rdf:about=""><dc:format>image/svg+xml</dc:format><dc:type
           rdf:resource="http://purl.org/dc/dcmitype/StillImage" /></cc:Work></rdf:RDF></metadata><defs
     id="defs6"><inkscape:path-effect
       effect="powerclip"
       id="path-effect60"
       is_visible="true"
       lpeversion="1"
       inverse="true"
       flatten="false"
       hide_clip="false"
       message="Use fill-rule evenodd on &lt;b&gt;fill and stroke&lt;/b&gt; dialog if no flatten result after convert clip to paths." /><clipPath
       clipPathUnits="userSpaceOnUse"
       id="clipPath18"><path
         d="M 0,215.438 H 215.438 V 0 H 0 Z"
         id="path20"
         inkscape:connector-curvature="0" /></clipPath></defs><sodipodi:namedview
     pagecolor="#ffffff"
     bordercolor="#666666"
     borderopacity="1"
     objecttolerance="10"
     gridtolerance="10"
     guidetolerance="10"
     inkscape:pageopacity="0"
     inkscape:pageshadow="2"
     inkscape:window-width="1440"
     inkscape:window-height="847"
     id="namedview4"
     showgrid="false"
     inkscape:zoom="5.2141828"
     inkscape:cx="57.631274"
     inkscape:cy="60.987505"
     inkscape:window-x="0"
     inkscape:window-y="25"
     inkscape:window-maximized="0"
     inkscape:current-layer="g10"
     inkscape:snap-page="true"
     fit-margin-top="0"
     fit-margin-left="0"
     fit-margin-right="0"
     fit-margin-bottom="0"
     inkscape:showpageshadow="2"
     inkscape:pagecheckerboard="0"
     inkscape:deskcolor="#d1d1d1"
     inkscape:clip-to-page="false" /><g
     id="g10"
     inkscape:groupmode="layer"
     inkscape:label="Sticker_Grey_7X7cm"
     transform="matrix(1.25,0,0,-1.25,-70.917081,236.36263)"><path
       id="path61"
       clip-path="none"
       style="fill:#000000;fill-opacity:1;fill-rule:nonzero;stroke:none"
       inkscape:label="body"
       d="m -1.2326042,64.459693 v -0.01406 c -5.4557702,-0.07722 -10.9217488,-1.229294 -15.2562498,-4.221875 -9.625971,-6.646982 -14.246378,-17.791024 -15.209375,-25.025 -0.961997,-7.232979 3.465756,-16.616643 5.96875,-22.090625 4.151988,-9.0829742 -5.443518,-11.5666345 -11.6625,-14.6156255 -6.739979,-3.3039899 -12.350756,-10.5083335 -13.86875,-17.8703125 -1.299997,-6.311982 0.860765,-13.589699 6.29375,-17.054688 1.935994,-1.234996 4.612318,-1.889246 6.445312,-0.506249 0.904999,0.681997 1.438063,1.74819 1.814063,2.817187 0.729997,2.073994 0.98,4.315006 0.725,6.5 -0.773997,6.619979 -2.333923,11.241203 2.464062,16.692187 0.90391,1.0266654 1.891336,1.9568228 2.942188,2.8062505 -0.01142,-0.027932 -0.0263,-0.056459 -0.0375,-0.084375 -2.727991,-6.7999805 -4.242113,-17.2130215 -0.403125,-24.2250005 3.838988,-7.011978 7.171824,-8.499249 10.707812,-7.756249 3.438991,0.723997 7.577058,5.631265 6.264063,10.731249 -1.312996,5.099983 -8.004168,13.040221 -1.717188,23.692188 1.06766,1.8083888 2.287911,3.4534445 3.601563,4.9125 1.419851,0.21962446 2.8315746,0.36760789 4.2390623,0.496875 1.7024469,-1.9022351 3.1024842,-4.8843559 2.0640625,-9.38125 -2.1239937,-9.198973 -5.7986218,-18.954015 -4.7156248,-23.65 0.7562275,-3.279781 2.2813358,-6.655295 5.0109373,-8.28125 1.2876072,-0.937517 2.8668641,-1.473196 4.80625,-1.353125 h 0.453125 c 5.522984,-0.321 8.1927542,4.59589 9.29375,9.296875 1.0999967,4.699985 -2.5360062,14.441277 -4.625,23.63125 -1.0796178,4.7500109 0.5684206,7.8537966 2.4125,9.753125 0.9424185,-0.0877707 1.8923791,-0.20887224 2.8421875,-0.3359375 1.3734862,-1.50172 2.6462032,-3.2088785 3.7562502,-5.0890625 6.286982,-10.651967 -0.405754,-18.592205 -1.71875,-23.692188 -1.312997,-5.099984 2.825074,-10.007252 6.264062,-10.731249 3.535991,-0.743 6.870387,0.744271 10.709375,7.756249 3.83899,7.011979 2.324869,17.425021 -0.403125,24.2250005 -0.182923,0.4559908 -0.400634,0.91451 -0.6375,1.3734375 1.719134,-1.168898 3.305979,-2.5172996 4.695313,-4.095313 4.797985,-5.450984 3.238062,-10.072208 2.464062,-16.692187 -0.254997,-2.184994 -0.005,-4.426006 0.725,-6.5 0.376,-1.068997 0.909066,-2.13519 1.814063,-2.817187 1.832994,-1.382997 4.509318,-0.728747 6.445312,0.506249 5.432985,3.464989 7.593747,10.742706 6.29375,17.054688 -1.517994,7.361979 -7.128768,14.5663226 -13.86875,17.8703125 -6.218979,3.048991 -15.814486,5.5326513 -11.6625,14.6156255 2.502994,5.473982 6.93231,14.857646 5.970313,22.090625 -0.962997,7.233976 -5.584965,18.378018 -15.210938,25.025 -4.3345,2.992581 -9.8004796,4.144658 -15.2562497,4.221875 v 0.01406 c -0.20542174,0.0031 -0.4115514,-0.0065 -0.6171875,-0.0063 -0.20511517,-1.47e-4 -0.4107233,0.0095 -0.615625,0.0063 z m 0.2453125,-13.120312 c 0.1013499,-0.004 0.2007901,-0.01974 0.3,-0.03594 11.9721877,-0.16488 20.4546877,-3.746875 20.4546877,-3.746875 0,0 5.177238,-9.296659 3.83125,-20.385937 C 22.480647,17.95477 19.147269,14.61837 17.814271,11.697193 12.006237,11.100084 5.9291146,10.777218 -0.3169792,10.737818 c -0.16366984,-0.026 -0.32969017,-0.04021 -0.5,-0.03281 -0.0659999,0.003 -0.13023257,0.01398 -0.1953125,0.02188 -0.0629,-2e-4 -0.1245401,-5.63e-4 -0.1875,-0.0016 v 0.0078 c -6.3683436,0.0291 -12.5594173,0.355893 -18.4750003,0.964062 -1.332996,2.921177 -4.666377,6.257577 -5.784375,15.473438 -1.345996,11.089278 3.829688,20.385937 3.829688,20.385937 0,0 7.970691,3.652365 20.1031248,3.753125 v 0.0094 c 0.0372,0 0.072305,-0.0021 0.109375,-0.0031 0.1410299,0.0183 0.2838776,0.02828 0.4296875,0.02188 z m -0.5390625,-0.02969 v -0.0125 c 0.0251,0.004 0.0498,0.01046 0.075,0.01406 -0.0254,-2e-4 -0.0497,-5.63e-4 -0.075,-0.0016 z m 0.3265625,-40.576562 c 0.055,-2e-4 0.1090226,-0.0031 0.1640625,-0.0031 -0.0548,0.007 -0.1099926,0.01118 -0.1640625,0.02187 z M -19.001354,-5.7137445 c 0.07892,8.6e-4 0.155745,-0.0112 0.228125,-0.0375 0.771998,-0.2819997 0.835187,-2.0515644 0.142187,-3.9515625 -0.692998,-1.900988 -1.879564,-3.21225 -2.651562,-2.93125 -0.771998,0.282 -0.835186,2.050002 -0.142188,3.95 0.628031,1.7218783 1.660537,2.9621125 2.423438,2.9703125 z m 36.189062,0 c 0.7629,-0.008 1.796971,-1.2484442 2.425,-2.9703125 0.693,-1.899998 0.62825,-3.668 -0.14375,-3.95 -0.771999,-0.281 -1.958573,1.030252 -2.651562,2.93125 -0.693,1.8999881 -0.629802,3.6695628 0.142187,3.9515625 0.0724,0.0263 0.149205,0.0384 0.228125,0.0375 z m -38.809375,-9.0109375 c 0.965997,-0.025 1.702313,-1.844637 1.645313,-4.065625 -0.057,-2.220998 -0.885565,-4.002125 -1.851563,-3.978125 -0.965998,0.025 -1.702312,1.844627 -1.645312,4.065625 0.057,2.220998 0.885563,4.002125 1.851562,3.978125 z m 41.429688,0 c 0.965999,0.024 1.794562,-1.757137 1.851562,-3.978125 0.057,-2.220988 -0.679313,-4.040665 -1.645312,-4.065625 -0.965999,-0.024 -1.794563,1.757127 -1.851563,3.978125 -0.057,2.220988 0.679314,4.040625 1.645313,4.065625 z m -40.59375,-10.651562 c 1.086988,0.03115 2.546471,-1.151563 3.532812,-2.965626 1.168998,-2.149989 1.232186,-4.372625 0.142188,-4.965625 -1.090998,-0.592999 -2.92319,0.668753 -4.092188,2.81875 -1.168997,2.149998 -1.232185,4.374189 -0.142187,4.967188 0.170468,0.09267 0.358081,0.139713 0.559375,0.145313 z m 39.757812,0 c 0.2013,-0.0058 0.388905,-0.05265 0.559375,-0.145313 1.089999,-0.592991 1.026812,-2.817198 -0.142187,-4.967188 -1.168999,-2.149997 -3.001189,-3.411749 -4.092188,-2.81875 -1.089989,0.593 -1.026811,2.815636 0.142188,4.965625 0.986339,1.814063 2.445833,2.996745 3.532812,2.965626 z"
       transform="translate(108.3619,124.62976)" /><g
       id="g2"><path
         id="path4175"
         style="fill:#000000;stroke:#000000;stroke-width:4;stroke-linecap:butt;stroke-linejoin:miter;stroke-miterlimit:4;stroke-dasharray:none;stroke-opacity:1"
         d="m 111.4436,150.61442 -15.51236,14.70944 v 0 0 M 100.8,150.6 l 23.74854,17.74592 z"
         inkscape:label="hands" /><path
         d="m 0,0 c 0.707,0 1.404,-0.191 2.09,-0.571 0.685,-0.381 1.22,-0.93 1.603,-1.647 0.382,-0.717 0.574,-1.464 0.574,-2.241 0,-0.747 -0.188,-1.475 -0.563,-2.184 C 3.328,-7.353 2.797,-7.902 2.112,-8.29 1.426,-8.679 0.722,-8.873 0,-8.873 c -0.75,0 -1.465,0.194 -2.144,0.583 -0.679,0.388 -1.209,0.937 -1.592,1.647 -0.382,0.709 -0.574,1.437 -0.574,2.184 0,0.777 0.192,1.524 0.574,2.241 0.383,0.717 0.917,1.266 1.603,1.647 C -1.448,-0.191 -0.736,0 0,0"
         id="path154"
         inkscape:connector-curvature="0"
         style="fill:#000000;fill-opacity:1;fill-rule:nonzero;stroke:none"
         transform="translate(106.2857,158.9935)"
         inkscape:label="pin" /></g></g></svg>
